<svg width="42" height="42" fill="none" xmlns="http://www.w3.org/2000/svg"><path d="M9.667 25H6a5 5 0 0 0-5 5v7a5 5 0 0 0 5 5h30a5 5 0 0 0 5-5v-7a5 5 0 0 0-5-5h-4.167A2.833 2.833 0 0 0 29 27.833a2.833 2.833 0 0 1-2.833 2.834H15.333a2.833 2.833 0 0 1-2.833-2.834A2.833 2.833 0 0 0 9.667 25z" fill="#D4D4D8"/><path d="M9 9h24M9 17h24M1 25h12v6h16v-6h12" stroke="#161616" stroke-width="2" stroke-miterlimit="10" stroke-linecap="round" stroke-linejoin="round"/><path d="M37 1H5a4 4 0 0 0-4 4v32a4 4 0 0 0 4 4h32a4 4 0 0 0 4-4V5a4 4 0 0 0-4-4z" stroke="#161616" stroke-width="2" stroke-miterlimit="10" stroke-linecap="round" stroke-linejoin="round"/></svg>