<svg width="172" height="29" fill="none" xmlns="http://www.w3.org/2000/svg"><g style="mix-blend-mode:luminosity" clip-path="url(#a)"><path d="M13.604 12.464c2.916-.74 6.195-2.838 6.195-6.417C19.8.74 14.82.74 12.27.74H1.821c.486.247.729 1.605.729 3.456 0 2.221-.122 5.306-.486 9.502l-.121 1.727C1.458 22.706 1.214 26.902 0 27.89h9.353c7.167 0 11.54-3.702 11.54-8.514.121-4.443-3.037-6.418-7.289-6.911zM7.41 9.749c.121-1.975.364-3.949.607-5.8.607-.123 1.336-.123 1.822-.123 3.158 0 4.616 1.357 4.616 3.208 0 3.209-3.158 4.443-6.56 4.443h-.607l.122-1.728zm1.7 14.685c-1.822 0-2.55-.494-2.55-.74 0-1.728.12-3.085.242-4.937l.243-3.949H8.99c3.522 0 6.316 1.111 6.316 4.69 0 3.208-2.43 4.936-6.195 4.936zm156.938-12.34c-2.672-1.728-5.223-3.209-5.223-5.183 0-2.468 2.065-3.456 4.373-3.456 2.672 0 4.98 1.605 6.073 3.579L172 .617c-1.822 0-3.644-.494-6.559-.494-4.981 0-9.839 1.975-9.839 7.775 0 3.949 2.793 6.047 7.166 8.762 2.065 1.234 3.766 2.591 3.766 4.566 0 2.468-2.065 3.825-4.859 3.825-3.644 0-6.073-2.098-7.409-4.936l-.486 6.787c2.793 1.11 5.223 1.481 7.531 1.481 5.709 0 10.568-3.209 10.568-8.268 0-3.949-2.916-6.17-5.831-8.021zm-19.071 1.11c1.337-2.221 7.531-12.217 8.989-12.464h-7.167c.243.247.365.988.365 1.605 0 .864-.365 1.604-.729 2.344-1.701 2.715-2.915 4.813-4.859 7.651-.729-2.22-2.065-5.183-3.765-9.255C138.718.617 138.232.37 136.41.37c-.972 0-3.159.124-4.738.247.972.494 2.43 2.838 3.766 5.306 2.065 3.95 3.401 7.281 4.373 10.737.121 2.344-.486 9.995-1.701 11.23h7.288c-.607-.618-.729-2.222-.729-3.456 0-2.962.243-5.677.608-7.651.243-1.11 1.093-2.468 1.7-3.579zm-78.59 10.12-5.466-7.405c-.364-.494-.972-1.357-1.336-1.604 3.522-1.11 6.438-3.455 6.438-7.775 0-5.306-4.495-5.8-7.653-5.8h-9.96c.486.247.728 1.481.728 3.456 0 2.221-.121 5.306-.485 9.502l-.122 1.727c-.607 8.392-.972 11.6-2.065 12.464h7.288c-.486-.246-.729-1.604-.729-3.455 0-1.604.122-3.826.243-6.664l.122-1.974h.121c.972 0 1.336.617 1.944 1.357l7.53 10.613c.608.864 1.094 1.234 3.16 1.234 1.335 0 3.4-.123 4.858-.247-.85-.617-1.215-.864-4.616-5.43zM57.09 12.34c-.364 0-.85 0-1.214-.123l.121-1.851c.243-3.209.365-5.306.608-6.417.607-.123 1.457-.123 2.065-.123 2.55 0 4.008 1.234 4.008 3.331 0 3.209-2.308 5.183-5.588 5.183zm-14.94 3.332-1.093-4.195C39.72 6.54 38.14.74 38.14.74h-5.83c.243.247.364.864.364 1.481 0 .617-1.822 4.69-3.522 8.392l-1.822 4.072c-3.28 7.034-5.588 11.353-7.41 13.204h6.438c-.122-.246-.122-.863-.122-1.234 0-1.48 1.336-4.072 1.822-5.306l.608-1.11h3.158c3.158 0 5.102-.37 6.316-.864l.608 2.344c1.822 6.417 2.065 6.54 4.372 6.54.73 0 2.551-.123 4.13-.246-1.822-1.605-3.036-5.06-5.101-12.34zm-12.026.74 4.373-9.501 2.672 9.502h-7.045zm47.13-1.357c0-5.43 2.308-11.723 8.017-11.723 2.915 0 5.102 1.604 6.317 4.072l.728-6.91C90.008.494 88.672 0 85.757 0c-9.232 0-14.09 7.034-14.09 16.043 0 6.54 4.008 12.34 10.932 12.34 5.344 0 8.503-2.715 9.96-7.28-3.4 2.467-5.466 3.084-7.774 3.084-4.251 0-7.53-3.208-7.53-9.132zm52.11.617-1.093-4.195C127.785 9.626 125.356.74 125.356.74h-5.831c.243.247.365.864.365 1.481 0 .74-1.701 4.566-3.523 8.392l-1.822 4.072a85.871 85.871 0 0 1-4.13 8.268c-2.065 1.358-3.158 1.481-7.531 1.481-1.215 0-1.7-.247-1.7-1.48 0-2.716.364-5.43.485-8.146l.122-1.604c.486-7.28.85-11.723 1.943-12.34h-7.288c.486.617.608 1.604.73 3.455 0 2.221-.122 5.307-.487 9.502l-.121 1.728c-.486 7.28-.85 11.23-1.944 12.464h18.949c-.121-.247-.121-.864-.121-1.234 0-1.481 1.093-3.579 1.822-5.307l.607-1.11h3.159c3.158 0 5.101-.37 6.316-.864l.607 2.345c1.822 6.417 2.065 6.54 4.373 6.54.729 0 2.672-.123 4.13-.247-1.943-1.727-3.158-5.183-5.102-12.464zm-12.025.74 4.373-9.501 2.672 9.502h-7.045z" fill="#00AEEF" style="mix-blend-mode:hard-light"/></g><defs><clipPath id="a"><path fill="#fff" d="M0 0h172v29H0z"/></clipPath></defs></svg>