<svg width="46" height="42" fill="none" xmlns="http://www.w3.org/2000/svg"><path d="M30.562 18.46a4.863 4.863 0 0 0-7.562.77 4.86 4.86 0 0 0-7.562-.77 5.045 5.045 0 0 0 0 7.055L23 33.2l7.564-7.684a5.048 5.048 0 0 0-.002-7.055v0z" fill="#D4D4D8" stroke="#161616" stroke-width="2" stroke-miterlimit="10" stroke-linecap="round" stroke-linejoin="round"/><path d="M41 41H5a4 4 0 0 1-4-4V1h16l5 8h23v28a4 4 0 0 1-4 4z" stroke="#161616" stroke-width="2" stroke-miterlimit="10" stroke-linecap="round" stroke-linejoin="round"/></svg>