<svg width="113" height="30" fill="none" xmlns="http://www.w3.org/2000/svg"><path d="M15 21a6 6 0 1 1 0-12 6 6 0 0 1 0 12z" fill="#1901F3"/><path d="M3.376 17.05c-1.738.306-2.93 1.986-2.263 3.62a15 15 0 0 0 27.964-.488c.61-1.657-.64-3.294-2.389-3.54-1.748-.245-3.318 1.028-4.181 2.568a8.606 8.606 0 0 1-14.862.259c-.917-1.509-2.53-2.726-4.269-2.42z" fill="#AABB14"/><path d="M29.884 16.875c.077-.615.116-1.24.116-1.875 0-8.284-6.716-15-15-15C6.716 0 0 6.716 0 15c0 .815.065 1.614.19 2.394a4.68 4.68 0 0 1 2.926-1.822c1.256-.221 2.399.084 3.364.653a8.606 8.606 0 1 1 17.077-.298c.945-.603 2.076-.947 3.34-.77 1.168.164 2.266.8 2.987 1.718z" fill="#DBF301"/><path d="M50.264 22V12h-3.088v-1.92h8.32V12h-3.04v10h-2.192zm9.56 0V10.08h4.432c.81 0 1.525.15 2.144.448.63.288 1.12.715 1.472 1.28.352.555.528 1.232.528 2.032 0 .821-.198 1.52-.592 2.096a3.434 3.434 0 0 1-1.568 1.28L68.976 22h-2.464l-2.928-5.232 1.408.832H62V22h-2.176zM62 15.68h2.288c.395 0 .736-.075 1.024-.224.288-.16.512-.379.672-.656.16-.277.24-.597.24-.96 0-.373-.08-.693-.24-.96a1.62 1.62 0 0 0-.672-.64c-.288-.16-.63-.24-1.024-.24H62v3.68zM72.426 22l4.112-11.92h2.816L83.466 22h-2.368l-.848-2.56h-4.608L74.778 22h-2.352zm3.84-4.48h3.36l-1.984-5.936h.608l-1.984 5.936zm16.642 4.672a5.974 5.974 0 0 1-2.368-.464 5.904 5.904 0 0 1-1.888-1.296 5.995 5.995 0 0 1-1.248-1.952 6.532 6.532 0 0 1-.448-2.448c0-.885.144-1.701.432-2.448a5.779 5.779 0 0 1 1.248-1.952 5.653 5.653 0 0 1 1.904-1.28 5.974 5.974 0 0 1 2.368-.464c.854 0 1.616.144 2.288.432a5.22 5.22 0 0 1 1.728 1.152c.47.47.806.987 1.008 1.552l-1.952.912a3.142 3.142 0 0 0-1.136-1.472c-.533-.395-1.178-.592-1.936-.592-.746 0-1.408.176-1.984.528a3.653 3.653 0 0 0-1.328 1.456c-.31.619-.464 1.344-.464 2.176 0 .832.155 1.563.464 2.192.32.619.763 1.104 1.328 1.456.576.352 1.238.528 1.984.528.758 0 1.403-.192 1.936-.576.534-.395.912-.89 1.136-1.488l1.952.912a4.33 4.33 0 0 1-1.008 1.568c-.47.47-1.045.848-1.728 1.136-.672.288-1.434.432-2.288.432zM102.7 22V10.08h2.176v6.208l-.592-.208 5.072-6h2.736l-4.752 5.632.128-1.536L112.235 22h-2.56l-3.2-5.248-1.6 1.904V22h-2.176z" fill="snow"/></svg>