<svg width="108" height="28" fill="none" xmlns="http://www.w3.org/2000/svg"><circle cx="14" cy="14" r="14" fill="#1E293B"/><path d="M20.207 10.983a5.106 5.106 0 0 1-1.327.373c.466-.28.838-.722 1.001-1.258a5.044 5.044 0 0 1-1.466.56 2.32 2.32 0 0 0-1.676-.722 2.285 2.285 0 0 0-2.282 2.28c0 .187.023.35.07.513a6.523 6.523 0 0 1-4.726-2.398c-.186.35-.302.722-.302 1.141 0 .791.396 1.49 1.024 1.909a2.693 2.693 0 0 1-1.047-.28v.024a2.3 2.3 0 0 0 1.838 2.258c-.186.046-.395.07-.605.07a2.85 2.85 0 0 1-.442-.047c.303.908 1.14 1.583 2.142 1.583a4.658 4.658 0 0 1-2.84.978c-.187 0-.373 0-.536-.023a6.478 6.478 0 0 0 3.515 1.024c4.214 0 6.519-3.492 6.519-6.518v-.303a4.18 4.18 0 0 0 1.14-1.164z" fill="#fff"/><circle cx="54" cy="14" r="14" fill="#2563EB"/><path d="M52.709 20.304V14.75h-1.87v-2.164h1.87V10.99c0-1.852 1.131-2.861 2.783-2.861.792 0 1.472.059 1.67.085v1.936h-1.146c-.898 0-1.072.428-1.072 1.054v1.382h2.143l-.28 2.164h-1.863v5.554h-2.235z" fill="#fff"/><circle cx="94" cy="14" r="14" fill="#1E293B"/><path d="M94 8.447c1.81 0 2.024.007 2.738.04.43.005.855.084 1.258.233a2.244 2.244 0 0 1 1.286 1.286c.15.402.228.828.233 1.258.032.714.04.928.04 2.737 0 1.809-.007 2.023-.04 2.737a3.76 3.76 0 0 1-.233 1.259 2.243 2.243 0 0 1-1.286 1.285c-.403.15-.828.228-1.258.234-.714.032-.928.039-2.737.039-1.81 0-2.023-.007-2.738-.04a3.758 3.758 0 0 1-1.258-.233 2.245 2.245 0 0 1-1.285-1.285 3.76 3.76 0 0 1-.234-1.259c-.032-.714-.04-.928-.04-2.737 0-1.809.008-2.023.04-2.737.005-.43.084-.855.233-1.258a2.244 2.244 0 0 1 1.286-1.286c.403-.15.829-.228 1.258-.233.715-.033.929-.04 2.738-.04zm0-1.22c-1.838 0-2.07.007-2.792.04a4.973 4.973 0 0 0-1.645.315c-.452.17-.861.437-1.2.782a3.318 3.318 0 0 0-.782 1.2 4.972 4.972 0 0 0-.314 1.645c-.033.721-.04.953-.04 2.792 0 1.838.007 2.07.04 2.793.011.562.118 1.118.315 1.645.17.452.437.861.782 1.2.338.344.747.611 1.2.781a4.972 4.972 0 0 0 1.645.315c.722.032.953.04 2.792.04 1.84 0 2.07-.007 2.793-.04a4.972 4.972 0 0 0 1.645-.315 3.468 3.468 0 0 0 1.981-1.982 4.974 4.974 0 0 0 .315-1.645c.032-.722.04-.954.04-2.792 0-1.839-.008-2.07-.041-2.793a4.949 4.949 0 0 0-.315-1.645 3.316 3.316 0 0 0-.781-1.2 3.319 3.319 0 0 0-1.2-.782 4.974 4.974 0 0 0-1.645-.314c-.722-.033-.954-.04-2.792-.04z" fill="#fff"/><path d="M94.002 10.523a3.479 3.479 0 1 0 0 6.958 3.479 3.479 0 0 0 0-6.958zm0 5.737a2.258 2.258 0 1 1 0-4.516 2.258 2.258 0 0 1 0 4.516zM97.618 11.198a.813.813 0 1 0 0-1.626.813.813 0 0 0 0 1.626z" fill="#fff"/></svg>