<svg width="121" height="19" fill="none" xmlns="http://www.w3.org/2000/svg"><path d="m9.824.232 2.697 5.484 6.03.88a.415.415 0 0 1 .23.708l-4.363 4.268 1.03 6.027a.413.413 0 0 1-.6.438L9.454 15.19 4.06 18.038a.414.414 0 0 1-.6-.437l1.03-6.03L.124 7.305a.416.416 0 0 1 .23-.708l6.03-.88L9.084.232a.411.411 0 0 1 .74 0zM35.347.232l2.698 5.484 6.03.88a.416.416 0 0 1 .23.708l-4.363 4.268 1.03 6.027a.415.415 0 0 1-.6.438l-5.395-2.846-5.394 2.847a.414.414 0 0 1-.6-.437l1.03-6.03-4.365-4.267a.416.416 0 0 1 .23-.708l6.03-.88 2.7-5.484a.412.412 0 0 1 .74 0zM60.87.232l2.698 5.484 6.03.88a.416.416 0 0 1 .23.708l-4.363 4.268 1.03 6.027a.414.414 0 0 1-.6.438L60.5 15.19l-5.395 2.847a.414.414 0 0 1-.6-.437l1.03-6.03-4.364-4.267a.415.415 0 0 1 .23-.708l6.03-.88L60.13.232a.41.41 0 0 1 .74 0zM86.394.232l2.698 5.484 6.03.88a.415.415 0 0 1 .23.708l-4.363 4.268 1.03 6.027a.414.414 0 0 1-.6.438l-5.395-2.846-5.394 2.847a.414.414 0 0 1-.6-.437l1.03-6.03-4.365-4.267a.416.416 0 0 1 .23-.708l6.03-.88 2.7-5.484a.411.411 0 0 1 .739 0zM111.917.232l2.698 5.484 6.031.88a.416.416 0 0 1 .229.708l-4.363 4.268 1.03 6.027a.417.417 0 0 1-.164.406.41.41 0 0 1-.436.032l-5.395-2.846-5.394 2.847a.411.411 0 0 1-.576-.211.407.407 0 0 1-.024-.226l1.03-6.03-4.364-4.267a.414.414 0 0 1 .022-.614.416.416 0 0 1 .207-.094l6.031-.88 2.699-5.484a.408.408 0 0 1 .588-.17c.065.042.118.1.151.17z" fill="#DBF301"/></svg>