<svg width="171" height="48" fill="none" xmlns="http://www.w3.org/2000/svg"><g style="mix-blend-mode:luminosity"><path d="m157.958 25.118 2.645-6.925 2.645 6.925h-5.29zm5.381-10.856h-5.472l-7.661 18.81h4.743l1.733-4.595h7.82l1.756 4.594H171l-7.661-18.81zM124.693 29.78c-3.101 0-5.586-2.788-5.586-6.24 0-3.45 2.508-6.239 5.586-6.239 3.078 0 5.586 2.789 5.586 6.24.023 3.45-2.485 6.24-5.586 6.24zm0-16.181c-5.472 0-9.918 4.456-9.918 9.942 0 5.485 4.446 9.942 9.918 9.942 5.472 0 9.918-4.434 9.918-9.92 0-5.508-4.446-9.964-9.918-9.964zM85.591 29.78c-3.078 0-5.586-2.788-5.586-6.24 0-3.45 2.508-6.239 5.586-6.239 3.101 0 5.609 2.789 5.609 6.24 0 3.45-2.508 6.24-5.609 6.24zm0-16.181c-5.472 0-9.895 4.456-9.895 9.942 0 5.485 4.423 9.942 9.895 9.942 5.472 0 9.918-4.434 9.918-9.92 0-5.508-4.446-9.964-9.918-9.964zm24.51.663-4.856 7.61-4.857-7.61h-4.742l7.524 11.793v7.016h4.172v-7.016l7.524-11.793h-4.765zm41.109 0h-16.029v3.61h5.951v15.2h4.172V17.85h5.906v-3.588zM58.778 17.85h5.951v15.198h4.173V17.85h5.905v-3.588H58.756v3.588h.022z" fill="#9C8F8F"/><path d="M47.036 0H0v47.15h47.036V0z" fill="#EB0A1E"/><path d="M31.35 13.325c-2.189-.709-4.902-1.12-7.843-1.12s-5.655.411-7.843 1.12C9.85 15.199 5.86 19.084 5.86 23.564c0 6.308 7.888 11.427 17.624 11.427 9.736 0 17.624-5.12 17.624-11.427.046-4.48-3.944-8.365-9.758-10.24zM23.507 30.1c-1.46 0-2.645-2.857-2.713-6.468.866.069 1.778.114 2.713.114s1.824-.045 2.713-.114c-.068 3.588-1.254 6.468-2.713 6.468zm-2.531-9.302c.388-2.537 1.368-4.32 2.53-4.32 1.14 0 2.121 1.783 2.532 4.32-.798.069-1.665.114-2.531.114-.867 0-1.71-.022-2.531-.114zm6.612-.183c-.593-3.976-2.189-6.81-4.081-6.81-1.893 0-3.489 2.834-4.081 6.81-3.58-.571-6.088-1.828-6.088-3.314 0-2.011 4.537-3.634 10.146-3.634 5.609 0 10.146 1.623 10.146 3.634.046 1.486-2.462 2.766-6.042 3.314zm-19.13 2.537c0-1.943.753-3.748 2.03-5.302-.023.114-.023.228-.023.32 0 2.445 3.648 4.502 8.733 5.256v.549c0 4.525 1.254 8.365 2.986 9.69-7.706-.457-13.725-4.982-13.725-10.513zm16.394 10.514c1.733-1.326 2.987-5.166 2.987-9.691v-.549c5.084-.754 8.732-2.834 8.732-5.256 0-.115 0-.229-.023-.32 1.3 1.554 2.03 3.382 2.03 5.302 0 5.531-6.042 10.056-13.726 10.514z" fill="#fff"/></g></svg>